<svg width="24" height="24" viewBox="0 0 24 24" fill="none" xmlns="http://www.w3.org/2000/svg">
<path fill-rule="evenodd" clip-rule="evenodd" d="M16 22.621L12.479 15.826C12.472 15.83 10.505 16.796 10.415 16.837C8.175 17.923 3.616 9.017 5.806 7.843L7.888 6.817L4.396 0L2.29 1.039C0.668004 1.884 -0.00799586 3.666 0.00100414 5.882C0.0280041 12.784 6.712 23.895 12.213 23.999C12.788 24.01 13.35 23.901 13.89 23.654C14.011 23.599 15.992 22.625 16 22.621V22.621ZM20 17H19V4H20V17ZM18 15H17V6H18V15ZM22 14H21V7H22V14ZM16 13H15V8H16V13ZM14 12H13V9H14V12ZM24 12H23V9H24V12ZM12 11H11V10H12V11Z" fill="white" fill-opacity="0.75"/>
</svg>
